<svg width="41" height="33" viewBox="0 0 41 33" fill="none" xmlns="http://www.w3.org/2000/svg">
<path d="M38.3582 2.68177C41.8806 6.25746 41.8806 12.0547 38.3582 15.6304L25.6024 28.5789L23.0512 25.9893L35.7864 13.0615L35.8071 13.0407C37.9205 10.8952 37.9205 7.41672 35.8071 5.27144C33.6936 3.12594 30.2669 3.12594 28.1535 5.27144L15.3977 18.22L12.8466 15.6304L25.6024 2.68177C29.1248 -0.893923 34.8357 -0.893923 38.3582 2.68177Z" fill="#FFE2E2"/>
<path d="M12.8465 5.27144L15.3977 2.68177C11.8753 -0.893923 6.16429 -0.893923 2.64184 2.68177C-0.880612 6.25746 -0.880612 12.0547 2.64184 15.6304L15.3976 28.5789L17.9488 25.9893L5.19306 13.0407C3.07961 10.8952 3.07961 7.41695 5.19306 5.27144C7.30651 3.12616 10.7331 3.12616 12.8465 5.27144Z" fill="#FFE2E2"/>
<path d="M33.2559 10.451C32.5514 11.1661 31.4092 11.1661 30.7047 10.451C30.0002 9.73585 30.0002 8.57639 30.7047 7.86125C31.4092 7.14612 32.5514 7.14612 33.2559 7.86125C33.9603 8.57639 33.9603 9.73585 33.2559 10.451Z" fill="#FFE2E2"/>
<path d="M30.7047 7.86125L33.2559 10.451L17.9488 25.9893L15.3977 23.3997L30.7047 7.86125Z" fill="#FFE2E2"/>
<path d="M10.2954 7.8612C10.9998 8.57633 10.9998 9.73579 10.2954 10.4509C9.59087 11.1661 8.44868 11.1661 7.7442 10.4509C7.03971 9.73579 7.03971 8.57633 7.7442 7.8612C8.44868 7.14607 9.59087 7.14607 10.2954 7.8612Z" fill="#FFE2E2"/>
<path d="M14.1222 6.56631C13.4177 5.85117 13.4177 4.69171 14.1222 3.97658C14.8267 3.26145 15.9689 3.26145 16.6734 3.97658C17.3778 4.69171 17.3778 5.85117 16.6734 6.56631C15.9689 7.28144 14.8267 7.28144 14.1222 6.56631Z" fill="#FFE2E2"/>
<path d="M16.6734 3.97658L14.1222 6.56631L12.8465 5.27144L15.3977 2.68177L16.6734 3.97658Z" fill="#FFE2E2"/>
<path d="M19.2245 29.8739C19.929 29.1588 21.0712 29.1588 21.7756 29.8739C22.4801 30.5891 22.4801 31.7485 21.7756 32.4636C21.0712 33.1788 19.929 33.1788 19.2245 32.4636C18.52 31.7485 18.52 30.5891 19.2245 29.8739Z" fill="#FFE2E2"/>
<path d="M21.7756 32.4636L19.2245 29.8739L23.0512 25.9893L25.6024 28.5789L21.7756 32.4636Z" fill="#FFE2E2"/>
<path d="M12.8466 15.6304L15.3977 13.0407L10.2954 7.8612C10.9998 8.57633 10.9998 9.73579 10.2954 10.4509C9.59087 11.1661 8.44868 11.1661 7.7442 10.4509L12.8466 15.6304Z" fill="#FFE2E2"/>
</svg>
